# Blender v2.76 (sub 0) OBJ File: ''
# www.blender.org
mtllib ObliqueShape.mtl
o Cube_Cube.001
v -1.000000 -1.000000 1.000000
v -1.000000 3.124232 -0.119625
v -1.000000 -1.000000 -1.000000
v -1.000000 2.997074 -2.136930
v 1.000000 -1.000000 1.000000
v 1.000000 3.124232 -0.119625
v 1.000000 -1.000000 -1.000000
v 1.000000 2.997074 -2.136930
vt 0.496994 0.536532
vt 0.248481 0.587461
vt 0.254758 0.065961
vt 0.496994 0.000200
vt 0.999800 0.521738
vt 0.748797 0.521738
vt 0.748797 0.000200
vt 0.999800 0.000200
vt 0.248082 0.590410
vt 0.000200 0.536493
vt 0.006655 0.000200
vt 0.248082 0.068871
vt 0.748397 0.536532
vt 0.497394 0.536532
vt 0.497394 0.000200
vt 0.748397 0.000200
vt 0.000200 0.841813
vt 0.000200 0.590809
vt 0.251203 0.590809
vt 0.251203 0.841813
vt 0.497394 0.790610
vt 0.497394 0.536932
vt 0.748397 0.536932
vt 0.748397 0.790610
vn -1.000000 0.000000 0.000000
vn 0.000000 -0.273600 -0.961800
vn 1.000000 0.000000 0.000000
vn 0.000000 0.262000 0.965100
vn 0.000000 -1.000000 0.000000
vn 0.000000 0.998000 -0.062900
usemtl None
s off
f 2/1/1 4/2/1 3/3/1 1/4/1
f 4/5/2 8/6/2 7/7/2 3/8/2
f 8/9/3 6/10/3 5/11/3 7/12/3
f 6/13/4 2/14/4 1/15/4 5/16/4
f 1/17/5 3/18/5 7/19/5 5/20/5
f 6/21/6 8/22/6 4/23/6 2/24/6
