# Wavefront OBJ exported by MilkShape 3D

mtllib test.mtl

v -0.250000 0.112500 -0.528125
v -0.250000 -0.137500 -0.528125
v 0.250000 0.112500 -0.528125
v 0.250000 -0.137500 -0.528125
v 0.250000 0.112500 0.471875
v 0.250000 -0.137500 0.471875
v -0.250000 0.112500 0.471875
v -0.250000 -0.137500 0.471875
v 0.250000 0.050000 -0.278125
v 0.250000 -0.075000 -0.278125
v 0.750000 0.050000 -0.153125
v 0.750000 -0.075000 -0.153125
v 0.750000 0.050000 0.346875
v 0.750000 -0.075000 0.346875
v 0.250000 0.050000 0.221875
v 0.250000 -0.075000 0.221875
v -0.062500 0.362500 0.346875
v -0.062500 0.112500 0.221875
v 0.062500 0.362500 0.346875
v 0.062500 0.112500 0.221875
v 0.062500 0.362500 0.596875
v 0.062500 0.112500 0.471875
v -0.062500 0.362500 0.596875
v -0.062500 0.112500 0.471875
v -0.250000 0.050000 -0.278125
v -0.250000 -0.075000 -0.278125
v -0.750000 0.050000 -0.153125
v -0.750000 -0.075000 -0.153125
v -0.750000 0.050000 0.346875
v -0.750000 -0.075000 0.346875
v -0.250000 0.050000 0.221875
v -0.250000 -0.075000 0.221875
# 32 vertices

vt 1.000000 1.000000
vt 0.000000 0.000000
vt 0.000000 1.000000
vt 1.000000 0.000000
# 4 texture coordinates

vn 0.000000 0.000000 -1.000000
vn 1.000000 0.000000 0.000000
vn 0.000000 0.000000 1.000000
vn -1.000000 0.000000 0.000000
vn 0.000000 1.000000 0.000000
vn 0.000000 -1.000000 0.000000
vn 0.242536 0.000000 -0.970142
vn -0.242536 0.000000 0.970142
vn 0.000000 0.447214 -0.894427
vn 0.000000 -0.447214 0.894427
vn -0.242536 0.000000 -0.970142
vn 0.242536 0.000000 0.970142
# 12 normals

g Box02
usemtl Default
s 1
f 3/1/1 2/2/1 1/3/1
f 3/1/1 4/4/1 2/2/1
s 2
f 5/1/2 4/2/2 3/3/2
f 5/1/2 6/4/2 4/2/2
s 1
f 7/1/3 6/2/3 5/3/3
f 7/1/3 8/4/3 6/2/3
s 2
f 1/1/4 8/2/4 7/3/4
f 1/1/4 2/4/4 8/2/4
s 3
f 5/1/5 1/2/5 7/3/5
f 5/1/5 3/4/5 1/2/5
f 4/1/6 8/2/6 2/3/6
f 4/1/6 6/4/6 8/2/6
# 12 triangles in group

g Box05
usemtl Default
s 1
f 11/1/7 10/2/7 9/3/7
f 11/1/7 12/4/7 10/2/7
s 2
f 13/1/2 12/2/2 11/3/2
f 13/1/2 14/4/2 12/2/2
s 1
f 15/1/8 14/2/8 13/3/8
f 15/1/8 16/4/8 14/2/8
s 2
f 9/1/4 16/2/4 15/3/4
f 9/1/4 10/4/4 16/2/4
s 3
f 13/1/5 9/2/5 15/3/5
f 13/1/5 11/4/5 9/2/5
f 12/1/6 16/2/6 10/3/6
f 12/1/6 14/4/6 16/2/6
# 12 triangles in group

g Box06
usemtl Default
s 1
f 19/1/9 18/2/9 17/3/9
f 19/1/9 20/4/9 18/2/9
s 2
f 21/1/2 20/2/2 19/3/2
f 21/1/2 22/4/2 20/2/2
s 1
f 23/1/10 22/2/10 21/3/10
f 23/1/10 24/4/10 22/2/10
s 2
f 17/1/4 24/2/4 23/3/4
f 17/1/4 18/4/4 24/2/4
s 3
f 21/1/5 17/2/5 23/3/5
f 21/1/5 19/4/5 17/2/5
f 20/1/6 24/2/6 18/3/6
f 20/1/6 22/4/6 24/2/6
# 12 triangles in group

g Duplicate01
usemtl Default
s 1
f 25/3/11 26/2/11 27/1/11
f 26/2/11 28/4/11 27/1/11
s 2
f 27/3/4 28/2/4 29/1/4
f 28/2/4 30/4/4 29/1/4
s 1
f 29/3/12 30/2/12 31/1/12
f 30/2/12 32/4/12 31/1/12
s 2
f 31/3/2 32/2/2 25/1/2
f 32/2/2 26/4/2 25/1/2
s 3
f 31/3/5 25/2/5 29/1/5
f 25/2/5 27/4/5 29/1/5
f 26/3/6 32/2/6 28/1/6
f 32/2/6 30/4/6 28/1/6
# 12 triangles in group

# 48 triangles total

